<?xml version="1.0" encoding="UTF-8"?>
<svg version="1.1" xmlns="http://www.w3.org/2000/svg" width="632" height="395">
<path d="M0 0 C2.01400652 1.3120806 4.01573778 2.64335663 6 4 C5.84717529 12.91940587 4.68230517 21.20030579 2.625 29.875 C2.40215332 30.81923828 2.17930664 31.76347656 1.94970703 32.73632812 C1.50575626 34.61272138 1.06142782 36.48902532 0.61669922 38.36523438 C-1.75204998 48.48540117 -3.27337636 58.27276417 -3.4375 68.6875 C-3.45981689 69.52555176 -3.48213379 70.36360352 -3.50512695 71.22705078 C-3.484973 76.60325404 -2.66747362 79.80399767 1 84 C3.9887544 86.1072228 6.45439954 86.2473629 10.0625 86.1875 C10.91972656 86.18105469 11.77695312 86.17460937 12.66015625 86.16796875 C15.15477968 86.08590034 15.15477968 86.08590034 18 85 C19.33827304 83.33729713 20.67189785 81.67083819 22 80 C22.66 80 23.32 80 24 80 C24.26941406 79.44183594 24.53882813 78.88367188 24.81640625 78.30859375 C26.09063799 75.82321105 27.49085395 73.45149055 28.9375 71.0625 C29.44152344 70.22847656 29.94554687 69.39445312 30.46484375 68.53515625 C30.97144531 67.69855469 31.47804688 66.86195313 32 66 C32.515625 65.08863281 33.03125 64.17726563 33.5625 63.23828125 C35 61 35 61 37.0625 60.125 C39 60 39 60 41 61 C40.49546978 66.04530223 39.24710766 69.50578469 37 74 C36.2863276 77.73771834 36.2863276 77.73771834 36 81 C40.9435365 79.69545565 44.99648763 78.2447822 49 75 C53.73606041 71.20926103 58.84085357 68.7367378 65 69.25 C67 70 67 70 68 71 C68.15855469 70.22398437 68.31710937 69.44796875 68.48046875 68.6484375 C71.17802952 56.15917823 75.17490382 44.98443847 81.4375 33.8359375 C82.65169762 31.63216882 83.69725446 29.51740641 84.625 27.1875 C86.33113902 23.23235954 88.32681656 19.39661922 91 16 C91.66 16 92.32 16 93 16 C93 15.34 93 14.68 93 14 C96.3125 12.875 96.3125 12.875 100 12 C100.99 12.66 101.98 13.32 103 14 C103 22.16599791 99.75180273 27.95221475 96.0546875 35.00390625 C94.30275153 38.35263399 92.78593368 41.74110938 91.375 45.25 C87.73242886 54.24069398 83.43482673 62.701798 78.00390625 70.74609375 C76.74627557 73.56964591 77.13232211 75.08891502 78 78 C86.75003718 79.6039348 95.10747704 80.26197285 104 80 C104.6875 81.8125 104.6875 81.8125 105 84 C103.4742356 86.01857683 102.55371847 86.89469751 100.04223633 87.37231445 C99.31286865 87.3693335 98.58350098 87.36635254 97.83203125 87.36328125 C97.02056641 87.36263672 96.20910156 87.36199219 95.37304688 87.36132812 C94.10557617 87.3371582 94.10557617 87.3371582 92.8125 87.3125 C91.98685547 87.31572266 91.16121094 87.31894531 90.31054688 87.32226562 C82.87992383 87.25785518 76.2686851 86.309721 70 82 C69.6596875 82.8353125 69.6596875 82.8353125 69.3125 83.6875 C67.51585179 86.85302304 65.91094752 88.77033807 63 91 C59.87730428 91.65242036 57.12441517 91.63537547 54 91 C51.4375 89.25 51.4375 89.25 50 87 C50 85.68 50 84.36 50 83 C49.195625 83.639375 48.39125 84.27875 47.5625 84.9375 C43.63100512 87.53990796 39.6820342 88.25037616 35 88 C31.4375 86.5625 31.4375 86.5625 29 85 C28.278125 85.7425 27.55625 86.485 26.8125 87.25 C20.02810277 93.88363285 15.7258725 95.41451028 6.3046875 95.3515625 C1.51725797 94.84226149 -1.39723717 93.07661678 -5 90 C-5.763125 89.401875 -6.52625 88.80375 -7.3125 88.1875 C-9.74696808 85.03170804 -10.74129219 81.77612343 -12 78 C-12.79550392 79.39365 -13.58621838 80.79003431 -14.375 82.1875 C-14.81585938 82.96480469 -15.25671875 83.74210937 -15.7109375 84.54296875 C-17.04635151 86.96113253 -17.04635151 86.96113253 -17.9296875 89.5078125 C-20.28714444 94.99707356 -24.76415894 99.85926477 -30.0625 102.5625 C-35.10304073 103.31321883 -38.53793939 103.74536423 -43.1875 101.375 C-47.29741266 97.90440709 -49.77419995 95.49652163 -50.27734375 89.93359375 C-50.33303357 84.49455469 -49.99146741 79.35231187 -49 74 C-49.40476563 75.10085937 -49.80953125 76.20171875 -50.2265625 77.3359375 C-52.15942984 82.48194188 -54.24457712 87.55804828 -56.375 92.625 C-56.93574219 93.99785156 -56.93574219 93.99785156 -57.5078125 95.3984375 C-59.73903251 100.68612327 -61.93622484 104.90948948 -66 109 C-68.625 109.625 -68.625 109.625 -71 109 C-72.8125 107.1875 -72.8125 107.1875 -74 105 C-74 104.01 -74 103.02 -74 102 C-72.515 101.505 -72.515 101.505 -71 101 C-70.01 101.66 -69.02 102.32 -68 103 C-64.70148068 96.78355974 -62.0888128 90.35924635 -59.515625 83.8203125 C-58.16757418 80.39873313 -56.74970161 77.01021584 -55.3125 73.625 C-53.56747119 69.48264727 -52.05200637 65.3440994 -50.7734375 61.03515625 C-50 59 -50 59 -48.5625 56.63671875 C-46.85150094 53.74940783 -45.76082764 50.90592378 -44.625 47.75 C-40.04525181 35.61911938 -32.95606124 24.2292216 -25 14 C-24.34 14 -23.68 14 -23 14 C-22.773125 13.46375 -22.54625 12.9275 -22.3125 12.375 C-18.08796365 4.73060088 -9.37747345 -3.62311474 0 0 Z M-15.51171875 14.87890625 C-25.52315046 27.43641636 -31.49059778 42.04590825 -37 57 C-37.35964844 57.91136719 -37.71929687 58.82273438 -38.08984375 59.76171875 C-41.65860722 68.98663566 -44.70314055 79.02712325 -44 89 C-43.00249221 91.22823166 -43.00249221 91.22823166 -41.5 92.9375 C-40.675 93.948125 -39.85 94.95875 -39 96 C-33.61747989 95.57784156 -30.89431677 94.7385441 -27 91 C-25.2967434 88.52557391 -23.92389298 85.9248326 -22.5625 83.25 C-21.98218018 82.13467896 -21.98218018 82.13467896 -21.39013672 80.99682617 C-18.17462004 74.66798934 -15.62352244 68.18419563 -13.2890625 61.48828125 C-12 58 -12 58 -10.3671875 54.9375 C-8.83928028 51.6546822 -8.60552497 49.28853954 -8.5 45.6875 C-8.28039547 41.7829314 -8.00968145 38.41155455 -6.625 34.75 C-4.97180093 30.35510941 -4.09139401 25.91812821 -3.25 21.3125 C-3.04044678 20.22437012 -3.04044678 20.22437012 -2.82666016 19.11425781 C-2.0683139 14.79812764 -1.98892984 11.33803752 -3 7 C-9.33648421 6.13183401 -11.7627723 10.46968518 -15.51171875 14.87890625 Z M57 82 C57 82.66 57 83.32 57 84 C60.34249629 83.40312566 62.46436342 82.26396123 65 80 C65 79.34 65 78.68 65 78 C61.06830895 78 59.83572772 79.39419615 57 82 Z " fill="#191919" transform="translate(269,106)"/>
<path d="M0 0 C2.48755907 1.02038984 4.99277903 1.98191688 7.50683594 2.93505859 C15.82974089 6.11442216 23.5628531 9.2778255 30.94433594 14.35693359 C67.0051368 38.53540499 117.54710782 36.27084339 158.33691406 29.36376953 C161.08522348 28.79873438 163.67837692 27.87147229 166.32714844 26.95458984 C168.4894254 26.51571185 170.65653276 26.10016934 172.82714844 25.70458984 C180.50682901 24.09121157 187.25614361 21.30525509 194.32714844 17.95458984 C195.51695312 17.40544922 196.70675781 16.85630859 197.93261719 16.29052734 C210.23207464 10.41575923 220.69927386 4.62892206 225.63964844 -8.54541016 C225.97996094 -9.78291016 225.97996094 -9.78291016 226.32714844 -11.04541016 C229.70214844 -11.23291016 229.70214844 -11.23291016 233.32714844 -11.04541016 C235.32714844 -8.04541016 235.32714844 -8.04541016 235.16308594 -5.71728516 C234.17059609 -2.54502788 232.74422625 -0.09316876 230.95214844 2.70458984 C230.34628906 3.66880859 229.74042969 4.63302734 229.11621094 5.62646484 C227.32714844 7.95458984 227.32714844 7.95458984 224.32714844 8.95458984 C222.98409833 10.27813507 221.65189966 11.61272929 220.32714844 12.95458984 C206.61178061 22.9272895 191.28630019 28.74065341 175.32714844 33.95458984 C174.56450684 34.20515137 173.80186523 34.45571289 173.01611328 34.71386719 C157.5506902 39.76415016 157.5506902 39.76415016 150.32714844 40.95458984 C149.28429687 41.13892578 148.24144531 41.32326172 147.16699219 41.51318359 C120.9888909 45.37465327 92.30270316 44.34116119 66.63964844 38.14208984 C65.65923584 37.90603027 64.67882324 37.6699707 63.66870117 37.42675781 C57.87905146 35.92175603 52.80228333 33.87496075 47.51391602 31.08569336 C44.91820415 29.74306379 42.2789902 28.77081065 39.51464844 27.82958984 C33.31841097 25.52435458 27.5931584 22.56542406 21.76464844 19.45458984 C8.43133406 12.37378564 -4.58524622 7.63136412 -19.13037109 3.67553711 C-20.7708845 3.21035216 -22.40338362 2.71540318 -24.02392578 2.18481445 C-31.40958719 -0.22706322 -38.85689526 -1.24757827 -46.54785156 -2.23291016 C-47.83304687 -2.41015625 -49.11824219 -2.58740234 -50.44238281 -2.77001953 C-72.61364515 -5.68492153 -97.14400896 -4.31999749 -117.12207031 6.58740234 C-119.67285156 7.95458984 -119.67285156 7.95458984 -122.17285156 8.85693359 C-131.53614216 12.96800337 -138.17005443 22.71337244 -143.67285156 30.95458984 C-144.11628906 31.57720703 -144.55972656 32.19982422 -145.01660156 32.84130859 C-148.7484928 38.13259725 -149.5295167 43.5706743 -148.67285156 49.95458984 C-146.76241202 52.68378918 -145.55926997 53.65911704 -142.42285156 54.70458984 C-141.84535156 54.78708984 -141.26785156 54.86958984 -140.67285156 54.95458984 C-141.00285156 56.60458984 -141.33285156 58.25458984 -141.67285156 59.95458984 C-147.54652753 58.57254844 -151.11051689 56.72786733 -155.28613281 52.20849609 C-158.09036686 47.65062836 -157.19635304 42.10438344 -156.67285156 36.95458984 C-153.9959843 25.85451361 -143.10757516 12.24440558 -133.67285156 5.95458984 C-132.68285156 5.95458984 -131.69285156 5.95458984 -130.67285156 5.95458984 C-130.67285156 5.29458984 -130.67285156 4.63458984 -130.67285156 3.95458984 C-128.73144531 2.55224609 -128.73144531 2.55224609 -126.11035156 1.01708984 C-124.83998047 0.26105469 -124.83998047 0.26105469 -123.54394531 -0.51025391 C-86.08149568 -20.54119636 -38.00080464 -15.90169576 0 0 Z " fill="#191919" transform="translate(218.6728515625,246.04541015625)"/>
<path d="M0 0 C0.99 0 1.98 0 3 0 C4.16689383 3.47017445 4.03200288 3.92703343 2.4375 7.5625 C1.63186403 9.04541637 0.81873959 10.52427788 0 12 C-0.41378906 12.81597656 -0.82757813 13.63195312 -1.25390625 14.47265625 C-4.81240788 21.35648135 -9.09942116 27.49715724 -13.65234375 33.73828125 C-16.29985739 37.3790079 -18.684077 41.14012833 -21 45 C-20.175 45.94875 -19.35 46.8975 -18.5 47.875 C-16 50.75 -16 50.75 -16 53 C-15.34 53 -14.68 53 -14 53 C-12.5625 54.94140625 -12.5625 54.94140625 -11 57.5625 C-10.484375 58.40941406 -9.96875 59.25632813 -9.4375 60.12890625 C-1.89533923 75.19273278 -4.70314368 98.58809036 -9.74853516 114.33642578 C-11.36925673 118.97641777 -13.19691729 123.51369193 -15.14648438 128.02441406 C-15.91638901 129.8064702 -16.65544066 131.60177915 -17.390625 133.3984375 C-19.5777018 138.56159982 -21.5887738 142.36073839 -26 146 C-26.845625 146.7425 -27.69125 147.485 -28.5625 148.25 C-33.14141908 151.53742908 -38.51263376 151.68714783 -44 151 C-48.84974658 148.36426816 -50.18299446 144.97285726 -52 140 C-52.58007812 140.5053125 -53.16015625 141.010625 -53.7578125 141.53125 C-60.19507187 146.88501027 -60.19507187 146.88501027 -64.5 147.5 C-67 147 -67 147 -68 146 C-68.41649694 141.22630428 -68.63428379 136.62094746 -66.875 132.125 C-62.7524325 127.45275683 -59.83225902 125.06197829 -53.8125 123.5 C-50.00741908 122.50952136 -50.00741908 122.50952136 -47.125 119.9375 C-46.75375 118.968125 -46.3825 117.99875 -46 117 C-45.73445313 116.37996094 -45.46890625 115.75992188 -45.1953125 115.12109375 C-44.0656526 112.43698448 -43.03701435 109.72133702 -42 107 C-41.4661686 105.65624096 -40.93231257 104.3124917 -40.3984375 102.96875 C-36.88932904 93.97488246 -33.97961906 84.91112785 -31.5625 75.5625 C-31.30355957 74.59296387 -31.04461914 73.62342773 -30.77783203 72.62451172 C-29.05304814 65.66500281 -28.70947264 59.15453156 -29 52 C-29.4444043 52.47091064 -29.88880859 52.94182129 -30.34667969 53.42700195 C-34.42432296 57.30654354 -41.49797131 59.22270764 -47.0625 59.375 C-50 59 -50 59 -52 57 C-52.43760453 51.66122468 -52.4968943 48.28651559 -49 44 C-44.1683738 39.21609357 -39.94903969 36.0406435 -33 35.625 C-28.93880552 35.70191656 -26.88922396 37.11077604 -24 40 C-23.46375 38.845 -22.9275 37.69 -22.375 36.5 C-20.89207022 33.52895537 -19.29157272 30.92861368 -17.25 28.3125 C-10.46950218 19.58004069 -5.15854367 9.75042913 0 0 Z M-41 43 C-44.66108252 46.1335717 -47.08450557 49.22259226 -48 54 C-39.08003496 54.30365838 -34.38667273 50.9654241 -28 45 C-28.33 44.01 -28.66 43.02 -29 42 C-33.11664606 40.37454319 -37.06981101 41.20463536 -41 43 Z M-22 55 C-22.23783203 56.27617188 -22.23783203 56.27617188 -22.48046875 57.578125 C-26.65403558 79.25300248 -31.44427625 101.92035721 -43 121 C-45.9072643 127.34094684 -47.11425076 134.06324282 -46 141 C-44.83365996 143.34052466 -44.83365996 143.34052466 -43 145 C-37.61682474 145.60777785 -34.38631431 145.41157779 -30 142 C-19.27165761 133.22226532 -13.98148641 111.38753087 -12.5 98.125 C-12.2543576 95.41741714 -12.10628295 92.71633455 -12 90 C-11.96438965 89.27022949 -11.9287793 88.54045898 -11.89208984 87.78857422 C-11.36610926 75.78948024 -11.99399719 66.09213289 -19.6953125 56.3984375 C-20.12585938 55.93695313 -20.55640625 55.47546875 -21 55 C-21.33 55 -21.66 55 -22 55 Z M-59 131 C-60.9634747 133.17130768 -62.76890614 135.33544069 -64 138 C-63.71320346 140.18262645 -63.71320346 140.18262645 -63 142 C-57.98756041 138.15619099 -54.8313413 134.6626826 -52 129 C-55.31439938 129 -56.2915503 129.16781344 -59 131 Z " fill="#252525" transform="translate(125,67)"/>
<path d="M0 0 C0.47308594 0.39058594 0.94617188 0.78117188 1.43359375 1.18359375 C1.43359375 1.84359375 1.43359375 2.50359375 1.43359375 3.18359375 C2.07296875 3.45171875 2.71234375 3.71984375 3.37109375 3.99609375 C5.43359375 5.18359375 5.43359375 5.18359375 6.43359375 8.18359375 C7.42359375 8.51359375 8.41359375 8.84359375 9.43359375 9.18359375 C13.13460546 15.02051272 16.17990646 21.20719335 16.43359375 28.18359375 C16.48966797 29.42882812 16.48966797 29.42882812 16.546875 30.69921875 C16.92525933 44.95833339 12.91398423 54.52461627 3.18359375 65.05859375 C-5.81992703 73.51644661 -15.4374378 75.38787111 -27.56640625 75.18359375 C-37.52097394 74.61340372 -45.40827771 71.30870388 -52.69140625 64.43359375 C-54.56640625 62.18359375 -54.56640625 62.18359375 -54.56640625 60.18359375 C-55.55640625 59.85359375 -56.54640625 59.52359375 -57.56640625 59.18359375 C-65.68786709 48.58229753 -66.68019117 37.56846159 -65.2890625 24.59765625 C-63.03573101 12.36528528 -55.19938335 4.89035251 -45.3671875 -2.01171875 C-31.59164211 -10.8880116 -13.32650129 -8.3388049 0 0 Z M-52.37890625 9.74609375 C-58.88199531 16.99239299 -62.3861595 25.89987684 -61.89453125 35.75 C-60.0477386 49.44704549 -53.512467 57.92915187 -42.87890625 66.30859375 C-37.44590873 69.38387536 -32.87236624 70.18359375 -26.56640625 70.18359375 C-26.56640625 65.56359375 -26.56640625 60.94359375 -26.56640625 56.18359375 C-25.57640625 56.18359375 -24.58640625 56.18359375 -23.56640625 56.18359375 C-23.56640625 60.80359375 -23.56640625 65.42359375 -23.56640625 70.18359375 C-13.58410941 69.92431331 -6.09128446 67.8520104 1.01953125 60.515625 C7.988093 52.20692405 7.988093 52.20692405 11.62109375 42.18359375 C11.77964844 41.35859375 11.93820312 40.53359375 12.1015625 39.68359375 C12.54330743 36.77783967 12.54330743 36.77783967 12.43359375 32.18359375 C6.16359375 32.18359375 -0.10640625 32.18359375 -6.56640625 32.18359375 C-6.89640625 31.52359375 -7.22640625 30.86359375 -7.56640625 30.18359375 C-1.29640625 30.18359375 4.97359375 30.18359375 11.43359375 30.18359375 C10.28189603 19.81831429 7.22443447 12.27852059 -0.56640625 5.18359375 C-7.57614004 0.07061145 -14.69504692 -3.37086621 -23.56640625 -2.81640625 C-22.90640625 -2.48640625 -22.24640625 -2.15640625 -21.56640625 -1.81640625 C-21.56640625 3.13359375 -21.56640625 8.08359375 -21.56640625 13.18359375 C-23.21640625 13.18359375 -24.86640625 13.18359375 -26.56640625 13.18359375 C-26.56640625 8.23359375 -26.56640625 3.28359375 -26.56640625 -1.81640625 C-25.90640625 -2.14640625 -25.24640625 -2.47640625 -24.56640625 -2.81640625 C-36.35979764 -3.74746347 -44.10363736 2.20640432 -52.37890625 9.74609375 Z " fill="#2D2D2D" transform="translate(449.56640625,132.81640625)"/>
<path d="M0 0 C2 2 2 2 2.4375 5.3125 C1.87792467 10.02892065 0.57448282 10.95788696 -3 14 C-4.10861961 15.1624361 -5.21252303 16.3293823 -6.3125 17.5 C-9.40016998 20.62847619 -12.6368167 22.7796128 -16.49609375 24.859375 C-16.99238281 25.23578125 -17.48867187 25.6121875 -18 26 C-18 26.99 -18 27.98 -18 29 C-16.56260487 29.02712066 -15.12506137 29.04645067 -13.6875 29.0625 C-12.88699219 29.07410156 -12.08648437 29.08570313 -11.26171875 29.09765625 C-8.83138666 29.09657855 -8.83138666 29.09657855 -6 28 C-5.67 27.34 -5.34 26.68 -5 26 C-4.34 26 -3.68 26 -3 26 C-2.7525 25.46375 -2.505 24.9275 -2.25 24.375 C2.2898487 15.74928748 9.1525341 9.2079411 18 5 C21.40540042 4.4859773 23.00817373 4.33878248 25.875 6.25 C27 8 27 8 27 12 C24.69487913 12.68299878 23.00390293 13.00030946 20.5859375 12.80859375 C17.93295924 12.76629397 17.93295924 12.76629397 16.05078125 14.50390625 C12.32390624 18.91753126 10.07030199 22.2917227 9 28 C19.88824043 27.40488532 19.88824043 27.40488532 29 22 C31.5 21.75 31.5 21.75 34 22 C36 24 36 24 36.0625 26.4375 C35 29 35 29 32.0625 30.6875 C22.48811229 34.11945975 11.5595822 36.09000801 2 32 C-0.25285136 31.84840761 -0.25285136 31.84840761 -2.9375 33.5 C-7.82564479 35.63728507 -12.76109823 35.73155836 -18 35 C-20.58805276 33.94395548 -21.90276173 32.92719192 -24 31 C-24 30.34 -24 29.68 -24 29 C-24.56847656 29.2165625 -25.13695312 29.433125 -25.72265625 29.65625 C-30.7242219 31.45981958 -34.68962036 32.3389604 -40 32 C-40.33 30.68 -40.66 29.36 -41 28 C-40.09636719 27.73445313 -39.19273438 27.46890625 -38.26171875 27.1953125 C-37.08222656 26.84210938 -35.90273437 26.48890625 -34.6875 26.125 C-33.51574219 25.77695313 -32.34398438 25.42890625 -31.13671875 25.0703125 C-27.89088275 24.11234547 -27.89088275 24.11234547 -25 22 C-23.91234791 19.75899576 -23.91234791 19.75899576 -23.0625 17.1875 C-19.99962474 9.21030996 -14.96985194 4.77492619 -8 0 C-4.67679974 -1.10773342 -3.30835256 -0.93312508 0 0 Z M-10.0625 8.75 C-10.77535156 9.26046875 -11.48820312 9.7709375 -12.22265625 10.296875 C-14.20233084 12.19388186 -14.62207203 13.32543283 -15 16 C-8.076574 12.27992996 -8.076574 12.27992996 -4 6 C-6.75220928 6 -7.85880391 7.13422283 -10.0625 8.75 Z " fill="#1E1E1E" transform="translate(158,176)"/>
<path d="M0 0 C5.34965035 -0.35664336 5.34965035 -0.35664336 7.9375 1.0625 C9.61676907 4.12469653 8.68621125 6.69370941 8 10 C7.34 10 6.68 10 6 10 C6.44787324 14.64973854 8.02185597 16.37027468 11.5625 19.3125 C12.38878906 20.00988281 13.21507812 20.70726562 14.06640625 21.42578125 C14.70449219 21.94527344 15.34257812 22.46476562 16 23 C15.67 23.99 15.34 24.98 15 26 C5.76 26 -3.48 26 -13 26 C-13 24.68 -13 23.36 -13 22 C-10.33682517 20.18078903 -7.66821597 18.71468072 -4.796875 17.26367188 C-2.34409522 15.90919238 -0.36150377 14.76547705 0.86035156 12.17822266 C1.50473382 10.04173054 1.50473382 10.04173054 2 7 C1.01 6.34 0.02 5.68 -1 5 C-0.67 3.35 -0.34 1.7 0 0 Z M3 18 C1.31503702 18.96885372 -0.35178756 19.96986723 -2 21 C-2 21.33 -2 21.66 -2 22 C0.97 22 3.94 22 7 22 C5.68 20.68 4.36 19.36 3 18 Z " fill="#282828" transform="translate(307,136)"/>
<path d="M0 0 C0.66 0 1.32 0 2 0 C1.71987403 13.39511438 -3.52528987 21.75242333 -13 31 C-21.87268763 38.52130905 -30.54405004 40.06868076 -42 40 C-42.99 39.67 -43.98 39.34 -45 39 C-44.67 38.01 -44.34 37.02 -44 36 C-43.32195312 35.97421875 -42.64390625 35.9484375 -41.9453125 35.921875 C-34.93220669 35.49448351 -29.30663862 34.07949578 -23 31 C-22.31164062 30.68546875 -21.62328125 30.3709375 -20.9140625 30.046875 C-14.11395349 26.44523624 -7.91257426 19.30559302 -5.29980469 12.05761719 C-4.81905235 10.38466642 -4.40317191 8.69332203 -4 7 C-3.34 7 -2.68 7 -2 7 C-1.855625 6.030625 -1.71125 5.06125 -1.5625 4.0625 C-1 1 -1 1 0 0 Z " fill="#252525" transform="translate(464,168)"/>
<path d="M0 0 C0.33 0 0.66 0 1 0 C1.144375 1.093125 1.28875 2.18625 1.4375 3.3125 C1.88288104 6.93122987 1.88288104 6.93122987 3 10 C2.546875 12.3046875 2.546875 12.3046875 1.75 14.875 C1.49734375 15.71804687 1.2446875 16.56109375 0.984375 17.4296875 C0 20 0 20 -1.4609375 22.42578125 C-3.18260694 25.30542633 -4.24802112 28.15469005 -5.375 31.3125 C-7.70686448 37.52610867 -10.26292801 43.26292801 -15 48 C-17.4375 48.375 -17.4375 48.375 -20 48 C-21.8125 46.1875 -21.8125 46.1875 -23 44 C-23 43.01 -23 42.02 -23 41 C-21.515 40.505 -21.515 40.505 -20 40 C-19.01 40.66 -18.02 41.32 -17 42 C-13.70282962 35.78610197 -11.09062178 29.36480962 -8.51953125 22.828125 C-7.15348783 19.36040943 -5.71040527 15.92915219 -4.25 12.5 C-2.51583517 8.37369139 -1.08511468 4.3404587 0 0 Z " fill="#2C2C2C" transform="translate(218,167)"/>
<path d="M0 0 C0.99 0 1.98 0 3 0 C4.16689383 3.47017445 4.03200288 3.92703343 2.4375 7.5625 C1.63186403 9.04541637 0.81873959 10.52427788 0 12 C-0.41378906 12.81597656 -0.82757813 13.63195312 -1.25390625 14.47265625 C-4.81240788 21.35648135 -9.09942116 27.49715724 -13.65234375 33.73828125 C-16.29985739 37.3790079 -18.684077 41.14012833 -21 45 C-21.99 44.34 -22.98 43.68 -24 43 C-23.52118006 37.90018766 -21.95701614 35.03430491 -18.9375 30.9375 C-18.11446818 29.79492265 -17.2942231 28.65033354 -16.4765625 27.50390625 C-15.85442871 26.63403076 -15.85442871 26.63403076 -15.21972656 25.74658203 C-9.50979988 17.57027789 -4.65855009 8.80536551 0 0 Z " fill="#292929" transform="translate(125,67)"/>
<path d="M0 0 C1.32 0 2.64 0 4 0 C4.2475 0.5775 4.495 1.155 4.75 1.75 C5.8902123 4.05278099 5.8902123 4.05278099 7.73046875 5.69921875 C10.61616095 8.62464509 13.05935312 11.80942248 15.5625 15.0625 C16.52023002 16.30485661 17.47980748 17.54579167 18.44140625 18.78515625 C18.86107666 19.33051025 19.28074707 19.87586426 19.71313477 20.43774414 C21.05336226 22.06478184 22.48724851 23.53354879 24 25 C22.56347677 27.08401274 21.12581793 29.16722644 19.6875 31.25 C19.08131836 32.12978516 19.08131836 32.12978516 18.46289062 33.02734375 C17.3146165 34.68907379 16.15751498 36.34469361 15 38 C14.47019531 38.79921875 13.94039063 39.5984375 13.39453125 40.421875 C12.70423828 41.20304687 12.70423828 41.20304687 12 42 C11.01 42 10.02 42 9 42 C10.79507857 36.95363118 13.66772211 32.97356764 16.734375 28.62109375 C18.28002363 26.15646142 18.28002363 26.15646142 17.4453125 24.00390625 C16.96835937 23.34261719 16.49140625 22.68132812 16 22 C15.40445312 21.1234375 14.80890625 20.246875 14.1953125 19.34375 C13.51210938 18.4053125 12.82890625 17.466875 12.125 16.5 C11.44695312 15.5615625 10.76890625 14.623125 10.0703125 13.65625 C8.17973243 11.2306001 6.20705055 9.13378746 4 7 C0 2.33333333 0 2.33333333 0 0 Z " fill="#3E3E3E" transform="translate(404,141)"/>
<path d="M0 0 C1.32 0.33 2.64 0.66 4 1 C4 5.29 4 9.58 4 14 C5.32 14.66 6.64 15.32 8 16 C3.71 16 -0.58 16 -5 16 C-3.68 15.34 -2.36 14.68 -1 14 C-1.01160156 13.07316406 -1.02320313 12.14632812 -1.03515625 11.19140625 C-1.04417969 9.99386719 -1.05320312 8.79632813 -1.0625 7.5625 C-1.07410156 6.36753906 -1.08570313 5.17257813 -1.09765625 3.94140625 C-1 1 -1 1 0 0 Z " fill="#515151" transform="translate(423,188)"/>
<path d="M0 0 C0.99 0 1.98 0 3 0 C3.85276722 2.41707906 4.12087895 3.64003451 3.29296875 6.10546875 C2.92816406 6.79253906 2.56335938 7.47960937 2.1875 8.1875 C1.83042969 8.88230469 1.47335938 9.57710937 1.10546875 10.29296875 C0 12 0 12 -2 13 C-2 12.34 -2 11.68 -2 11 C-3.98 11.99 -3.98 11.99 -6 13 C-4.58707905 8.1725201 -2.57025846 4.2837641 0 0 Z " fill="#393939" transform="translate(125,67)"/>
<path d="M0 0 C0.99 0 1.98 0 3 0 C3 4.95 3 9.9 3 15 C1.68 15 0.36 15 -1 15 C-1.02685412 12.68756208 -1.04632841 10.3750373 -1.0625 8.0625 C-1.07410156 6.77472656 -1.08570313 5.48695313 -1.09765625 4.16015625 C-1 1 -1 1 0 0 Z " fill="#0B0B0B" transform="translate(425,131)"/>
<path d="M0 0 C6.27 0 12.54 0 19 0 C19 0.99 19 1.98 19 3 C13.06 3 7.12 3 1 3 C0.67 2.01 0.34 1.02 0 0 Z " fill="#2A2A2A" transform="translate(442,163)"/>
<path d="M0 0 C5.61 0 11.22 0 17 0 C17 0.99 17 1.98 17 3 C11.39 3 5.78 3 0 3 C0 2.01 0 1.02 0 0 Z " fill="#2E2E2E" transform="translate(389,164)"/>
<path d="M0 0 C0.66 1.32 1.32 2.64 2 4 C0.90833564 5.6748823 -0.19873637 7.33973123 -1.3125 9 C-1.92738281 9.928125 -2.54226563 10.85625 -3.17578125 11.8125 C-3.77777344 12.534375 -4.37976563 13.25625 -5 14 C-5.99 14 -6.98 14 -8 14 C-6.6744419 10.37723685 -5.05653045 7.36494652 -2.875 4.1875 C-2.33617187 3.39730469 -1.79734375 2.60710937 -1.2421875 1.79296875 C-0.83226562 1.20128906 -0.42234375 0.60960937 0 0 Z " fill="#545454" transform="translate(421,169)"/>
<path d="M0 0 C1.32 0 2.64 0 4 0 C4.28875 0.639375 4.5775 1.27875 4.875 1.9375 C5.82823451 4.15206079 5.82823451 4.15206079 8 5 C7.67 6.32 7.34 7.64 7 9 C6.34 9 5.68 9 5 9 C2.82796 6.03812728 1.16438003 3.49314009 0 0 Z " fill="#1E1E1E" transform="translate(404,141)"/>
<path d="M0 0 C1.65 0.33 3.3 0.66 5 1 C3.7260411 3.03833424 2.38938077 5.03852126 1 7 C0.34 7 -0.32 7 -1 7 C-0.67 4.69 -0.34 2.38 0 0 Z " fill="#2B2B2B" transform="translate(423,164)"/>
<path d="M0 0 C4.875 4.625 4.875 4.625 6 8 C2.74456771 7.65120368 1.98126893 6.97866739 -0.25 4.4375 C-1.11625 3.2309375 -1.11625 3.2309375 -2 2 C-1.34 1.34 -0.68 0.68 0 0 Z " fill="#303030" transform="translate(412,148)"/>
<path d="M0 0 C0.66 0 1.32 0 2 0 C0.50902342 3.7952131 -1.75700849 5.61042731 -5 8 C-4.1875 5.5625 -4.1875 5.5625 -3 3 C-2.01 2.67 -1.02 2.34 0 2 C0 1.34 0 0.68 0 0 Z " fill="#6C6C6C" transform="translate(362,120)"/>
</svg>
